<?xml version="1.0" standalone="no"?>
<!DOCTYPE svg PUBLIC "-//W3C//DTD SVG 20010904//EN"
 "http://www.w3.org/TR/2001/REC-SVG-20010904/DTD/svg10.dtd">
<svg version="1.0" xmlns="http://www.w3.org/2000/svg"
 width="200" height="200" viewBox="0 0 256.000000 205.000000"
 preserveAspectRatio="xMidYMid meet">
<metadata>
Created by potrace 1.16, written by Peter Selinger 2001-2019
</metadata>
<g transform="translate(0.000000,205.000000) scale(0.100000,-0.100000)"
fill="#000000" stroke="none">
<path d="M2359 1944 c-203 -134 -536 -472 -865 -880 -113 -139 -120 -150 -103
-170 23 -28 46 -13 125 86 l79 100 117 -2 c124 -2 145 4 134 40 -8 25 -33 32
-120 32 -68 0 -69 0 -51 20 16 18 27 19 139 13 l121 -6 111 134 c294 355 364
464 387 611 9 58 -10 64 -74 22z"/>
<path d="M369 1467 c-58 -31 -95 -102 -111 -215 -11 -71 -10 -87 3 -110 l15
-27 159 -5 159 -5 121 -355 c67 -195 131 -373 142 -395 25 -48 58 -80 96 -94
19 -7 192 -11 506 -11 535 0 543 1 602 68 40 45 57 86 65 155 6 47 4 57 -15
76 -19 19 -32 21 -168 21 l-148 0 -64 180 c-35 99 -65 180 -67 180 -2 0 -21
-23 -42 -52 l-40 -51 40 -111 c22 -61 43 -119 45 -128 5 -17 -12 -18 -251 -18
l-257 0 -24 -25 c-18 -17 -25 -35 -25 -62 0 -104 -109 -155 -152 -72 -10 20
-74 200 -142 400 -69 200 -140 408 -158 461 l-34 96 90 7 c50 4 213 5 363 3
317 -4 302 2 349 -122 15 -39 30 -74 34 -78 3 -5 23 15 44 43 38 49 39 51 26
89 -16 49 -58 113 -90 138 -53 40 -76 42 -560 42 l-467 0 -44 -23z m121 -107
c16 -9 60 -104 60 -130 0 -6 -39 -10 -90 -10 -101 0 -100 -1 -79 75 19 69 58
92 109 65z m1510 -925 c0 -9 -11 -27 -25 -40 l-24 -25 -374 0 -374 0 10 40 11
40 388 0 c343 0 388 -2 388 -15z"/>
<path d="M825 1162 c-2 -2 5 -27 14 -55 l18 -52 256 -3 c202 -2 257 0 256 10
0 7 -8 32 -17 56 l-17 43 -253 2 c-140 1 -255 1 -257 -1z"/>
<path d="M903 926 c3 -8 11 -32 18 -55 l12 -41 169 0 c92 0 168 4 168 8 0 5
-7 29 -16 55 l-16 47 -170 0 c-141 0 -169 -2 -165 -14z"/>
</g>
</svg>
